<?xml version="1.0" encoding="utf-8"?>
<svg version="1.0" xmlns="http://www.w3.org/2000/svg" width="512.000000pt" height="512.000000pt" viewBox="0 0 512.000000 512.000000" preserveAspectRatio="xMidYMid meet" xmlns:bx="https://boxy-svg.com"><defs><bx:export><bx:file format="svg" href="#object-0" units="pt"/><bx:file format="svg" path="Untitled 2.svg" units="pt"/></bx:export></defs><ellipse style="stroke: rgb(0, 0, 0); fill: rgb(255, 255, 255);" cx="256.478" cy="242.4" rx="206.689" ry="215.167"/><g transform="translate(0.000000,512.000000) scale(0.100000,-0.100000)" fill="#000000" stroke="none" id="object-0"><path d="M2435 5076 c-156 -61 -1935 -820 -1972 -841 -106 -63 -211 -188 -261 -313 -27 -67 -27 -69 -26 -312 0 -193 5 -280 22 -410 133 -994 517 -1825 1127 -2435 263 -263 577 -491 904 -654 241 -121 421 -121 662 0 413 207 814 523 1108 875 493 588 808 1343 922 2209 18 134 23 222 23 415 1 244 1 245 -26 312 -50 125 -155 250 -261 313 -40 23 -1936 830 -2006 854 -56 18 -149 13 -216 -13z m1060 -1034 l820 -348 -2 -125 c-3 -146 -25 -340 -59 -529 -176 -956 -661 -1736 -1366 -2197 -93 -60 -308 -183 -322 -183 -3 0 -6 850 -6 1890 l0 1889 58 -24 c31 -14 426 -182 877 -373z m-2145 -1332 c5 -504 5 -505 28 -553 46 -92 133 -137 267 -137 176 0 269 73 295 231 6 37 10 253 10 517 l0 452 140 0 140 0 0 -482 c-1 -532 -5 -590 -59 -703 -54 -117 -152 -198 -291 -240 -34 -10 -107 -19 -190 -22 -344 -14 -531 97 -607 362 -15 52 -17 125 -21 573 l-3 513 143 -3 143 -3 5 -505z" style="fill: rgb(36, 99, 235);"/><path d="M2722 3197 c2 -7 109 -327 238 -710 l235 -697 169 2 169 3 238 708 238 707 -142 0 -143 0 -170 -527 c-119 -372 -174 -529 -184 -531 -12 -2 -23 21 -44 85 -15 48 -93 287 -172 531 l-145 442 -145 0 c-115 0 -145 -3 -142 -13z" style="fill: rgb(36, 99, 235);"/></g></svg>